<svg width="620" height="620" viewBox="0 0 620 620" fill="none" xmlns="http://www.w3.org/2000/svg">
<rect width="620" height="620" fill="white"/>
<path d="M148.028 338.085L223.386 338.077C233.643 338.076 243.729 340.704 252.681 345.711L296.88 370.432C305.832 375.439 315.915 378.067 326.172 378.066C347.721 378.063 376.056 378.06 384.533 378.059C398.033 378.058 412.034 393.056 412.036 405.556C412.037 414.428 409.015 425.315 399.038 430.889M272.539 434.572C301.706 434.568 364.639 434.561 383.039 434.559C389.715 434.559 394.958 433.168 399.038 430.889M146.044 479.085L156.115 479.084C163.637 479.084 171.063 480.78 177.838 484.047L251.98 519.8C279.452 533.047 311.142 534.315 339.557 523.232C409.077 496.113 536.484 446.252 545.54 441.542C558.039 435.04 558.038 425.04 558.037 416.54C558.036 408.04 552.034 389.041 531.534 389.043C515.134 389.045 436.37 416.941 399.038 430.889" stroke="#0C9CD8" stroke-width="20" stroke-linecap="round"/>
<path d="M61.0261 318.095L115.026 318.089C131.595 318.087 145.028 331.517 145.029 348.086L145.043 472.086C145.045 488.654 131.615 502.087 115.046 502.089L61.0463 502.095L61.0261 318.095Z" stroke="#0C9CD8" stroke-width="20" stroke-linejoin="round"/>
<circle cx="103.031" cy="359.09" r="9" fill="#0C9CD8"/>
<path fill-rule="evenodd" clip-rule="evenodd" d="M364.259 79.1153C343.554 79.1176 322.475 88.9164 310.448 109.564C298.369 88.825 277.344 79.0308 256.696 79.0331C226.781 79.0364 197.668 99.6008 197.672 137.245C197.677 181.066 250.039 225.887 310.467 285.862C370.891 225.873 423.234 181.041 423.229 137.22C423.225 99.5103 394.136 79.112 364.259 79.1153Z" stroke="#0C9CD8" stroke-width="20" stroke-linejoin="round"/>
</svg>
