<svg width="620" height="620" viewBox="0 0 620 620" fill="none" xmlns="http://www.w3.org/2000/svg">
<rect width="620" height="620" fill="white"/>
<path d="M310 97C219.978 97 147 169.978 147 260C147 344.965 212.009 414.747 295 422.319V460.5H260.5V489.5H295V522.5H322.5V489.5H358V460.5H322.5V422.528C406.682 416.144 473 345.817 473 260C473 169.978 400.022 97 310 97Z" stroke="#590F6B" stroke-width="20" stroke-linejoin="round"/>
<path d="M310 385C240.964 385 185 329.036 185 260C185 234.407 192.681 210.637 205.862 190.834L378.672 364.465C358.968 377.446 335.381 385 310 385ZM310 135C379.036 135 435 190.964 435 260C435 285.634 427.295 309.438 414.075 329.26L239.256 156.93C259.37 143.096 283.725 135 310 135Z" stroke="#590F6B" stroke-width="20" stroke-linejoin="round"/>
<path d="M274 189.5H328.676C332.48 189.5 336.204 190.585 339.413 192.627L385.738 222.106C391.506 225.777 395 232.141 395 238.979V286.5C395 292.795 392.036 298.723 387 302.5V302.5M252 292.5L240.18 280.828C224.728 265.569 224.872 240.579 240.5 225.5V225.5M252 292.5H303.5M252 292.5V313.5C252 324.546 260.954 333.5 272 333.5H323.213C327.006 333.5 330.736 332.519 334.038 330.652L340.5 327M274 259H256" stroke="#590F6B" stroke-width="20" stroke-linecap="round"/>
</svg>
