<svg width="620" height="620" viewBox="0 0 620 620" fill="none" xmlns="http://www.w3.org/2000/svg">
<rect width="620" height="620" fill="white"/>
<path d="M149 332H224.358C234.614 332 244.7 334.629 253.651 339.637L297.849 364.363C306.8 369.371 316.882 372 327.139 372C348.688 372 377.023 372 385.5 372C399 372 413 387 413 399.5C413 408.372 409.978 419.259 400 424.831M273.5 428.5C302.667 428.5 365.6 428.5 384 428.5C390.676 428.5 395.92 427.11 400 424.831M147 473H157.071C164.593 473 172.019 474.697 178.794 477.965L252.931 513.726C280.402 526.976 312.092 528.248 340.508 517.167C410.031 490.056 537.444 440.209 546.5 435.5C559 429 559 419 559 410.5C559 402 553 383 532.5 383C516.1 383 437.333 410.887 400 424.831" stroke="#8CA645" stroke-width="20" stroke-linecap="round"/>
<path d="M62 312H116C132.569 312 146 325.431 146 342V466C146 482.569 132.569 496 116 496H62V312Z" stroke="#8CA645" stroke-width="20" stroke-linejoin="round"/>
<circle cx="104" cy="353" r="9" fill="#8CA645"/>
<circle cx="353" cy="201" r="116" stroke="#8CA645" stroke-width="20"/>
<path d="M355 253V273" stroke="#8CA645" stroke-width="20" stroke-linecap="round"/>
<path d="M355 129L355 149" stroke="#8CA645" stroke-width="20" stroke-linecap="round"/>
<path d="M323 228.385C323 229.93 323 231.475 323 233C323 244.046 331.954 253 343 253H363C374.046 253 383 244.046 383 233V221.923C383 210.877 374.046 201.923 363 201.923H343C331.954 201.923 323 192.969 323 181.923V169C323 157.954 331.954 149 343 149H363C374.046 149 383 157.954 383 169V171.154" stroke="#8CA645" stroke-width="20" stroke-linecap="round"/>
</svg>
